<svg width="30" height="30" viewBox="0 0 30 30" fill="none" xmlns="http://www.w3.org/2000/svg">
<rect width="30" height="30" fill="#B829A0"/>
<g clip-path="url(#clip0_1_423)">
<path d="M6.59766 23.4037C8.05117 24.867 9.96627 25.5938 11.8715 25.5938C13.7866 25.5938 15.6919 24.867 17.1454 23.4135" stroke="white" stroke-width="1.5"/>
<path d="M12.8525 6.58875C15.7596 3.68172 20.4933 3.68172 23.4003 6.58875C25.669 8.8574 26.1698 12.2358 24.9029 14.9955C24.5396 14.2197 24.0387 13.4831 23.4003 12.8447" stroke="white" stroke-width="1.5"/>
<path d="M23.4023 12.8438L22.0176 11.4492" stroke="white" stroke-width="1.5"/>
<path d="M6.60019 17.1473C3.69317 14.2403 3.69317 9.49673 6.60019 6.58971C8.86885 4.32105 12.2473 3.82018 15.007 5.08709C14.2311 5.45047 13.4945 5.94152 12.8562 6.58971L11.4616 7.98429" stroke="white" stroke-width="1.5"/>
<path d="M23.4019 12.8469C26.3188 15.7638 26.3188 20.4975 23.4019 23.4045C21.9484 24.8581 20.0333 25.5848 18.128 25.5848C17.0575 25.5848 15.987 25.3589 14.9951 24.8973" stroke="white" stroke-width="1.5"/>
<path d="M15.0039 24.9062C15.7896 24.5429 16.5163 24.0518 17.1547 23.4036L18.5493 22.009" stroke="white" stroke-width="1.5"/>
<path d="M11.96 14.9866L16.5562 10.3904C18.2749 8.67168 19.8364 9.27077 21.0248 10.4591L22.0167 11.451" stroke="white" stroke-width="1.5"/>
<path d="M11.4606 7.98346L10.4687 8.97539C9.28031 10.1637 8.68123 11.7253 10.3999 13.444L15.0453 18.0893" stroke="white" stroke-width="1.5"/>
<path d="M18.0892 15.0343L13.493 19.6403C11.7743 21.359 10.2128 20.7599 9.02441 19.5716L8.03249 18.5797L7.99321 18.5404L6.59862 17.1458C5.96025 16.5074 5.45938 15.7709 5.096 14.995C3.82909 17.7547 4.32996 21.1331 6.59862 23.4018" stroke="white" stroke-width="1.5"/>
<path d="M18.5405 22.0091L19.5324 21.0171C20.7208 19.8386 21.3199 18.2771 19.6012 16.5584L14.9951 11.9523L16.2326 10.7149" stroke="white" stroke-width="1.5"/>
</g>
<defs>
<clipPath id="clip0_1_423">
<rect width="24" height="24" fill="white" transform="matrix(1 0 0 -1 3 27)"/>
</clipPath>
</defs>
</svg>
