<svg viewBox="0 0 152.806 19.6917" xmlns="http://www.w3.org/2000/svg" xmlns:xlink="http://www.w3.org/1999/xlink" width="152.806396" height="19.691742" fill="none" customFrame="#000000">
	<rect id="Frame 336" width="152.806335" height="19.691738" x="0.000000" y="0.000000" />
	<path id="Vector" d="M13.3591 19.3642L13.3591 10.6356L2.28154 10.6356L2.28154 19.3642L0.00012207 19.3642L0.00012207 0.324219L2.28154 0.324219L2.28154 8.7735L13.3591 8.7735L13.3591 0.324219L15.6405 0.324219L15.6405 19.3642L13.3591 19.3642Z" fill="rgb(52,48,55)" fill-rule="nonzero" />
	<path id="Vector" d="M40.0286 9.86915C40.0286 11.289 39.7498 12.5925 39.1921 13.8028C38.6344 15.0132 37.874 16.0606 36.9107 16.9219C35.9474 17.7831 34.8574 18.4814 33.5646 18.9702C32.2972 19.459 30.979 19.6917 29.5848 19.6917C28.1906 19.6917 26.8724 19.4357 25.6303 18.9702C24.3882 18.4814 23.2982 17.8064 22.3603 16.9219C21.4224 16.0606 20.6873 15.0132 20.1549 13.8028C19.6226 12.5925 19.3438 11.289 19.3438 9.86915C19.3438 8.42602 19.6226 7.09927 20.2056 5.8889C20.7887 4.67853 21.5238 3.65438 22.487 2.79315C23.4503 1.93193 24.5403 1.23364 25.8078 0.744841C27.0752 0.256039 28.4187 0 29.8129 0C31.2071 0 32.5253 0.256039 33.7674 0.744841C35.0095 1.23364 36.0995 1.90866 37.0374 2.79315C37.9754 3.65438 38.7105 4.70181 39.2428 5.8889C39.7498 7.09927 40.0286 8.42602 40.0286 9.86915ZM37.5698 9.86915C37.5698 8.75188 37.367 7.68117 36.9867 6.72685C36.6065 5.74924 36.0488 4.9113 35.3644 4.18973C34.6546 3.46817 33.8181 2.90954 32.8548 2.49056C31.8916 2.07159 30.8269 1.8621 29.6862 1.8621C28.5455 1.8621 27.4808 2.07159 26.4922 2.49056C25.5289 2.88626 24.6924 3.46817 23.9826 4.18973C23.2729 4.9113 22.7405 5.74924 22.3603 6.72685C21.9801 7.70445 21.7773 8.75188 21.7773 9.86915C21.7773 10.9864 21.9801 12.0338 22.3603 13.0114C22.7405 13.989 23.2982 14.827 23.9826 15.5486C24.6924 16.2701 25.5289 16.8288 26.4922 17.2477C27.4555 17.6434 28.5201 17.8529 29.6862 17.8529C30.8269 17.8529 31.8916 17.6434 32.8548 17.2477C33.8181 16.8288 34.6546 16.2701 35.3644 15.5486C36.0488 14.827 36.6065 13.989 36.9867 13.0114C37.367 12.0338 37.5698 10.9864 37.5698 9.86915Z" fill="rgb(52,48,55)" fill-rule="nonzero" />
	<path id="Vector" d="M54.095 14.2218C54.095 14.9899 53.9429 15.7348 53.6134 16.3865C53.2838 17.0382 52.8529 17.6201 52.2952 18.109C51.7122 18.621 51.0531 18.9935 50.2673 19.2728C49.4815 19.5521 48.645 19.6917 47.7577 19.6917C46.5663 19.6917 45.4763 19.5288 44.5384 19.2262C43.5751 18.9236 42.6626 18.4814 41.75 17.9227L42.8654 16.1072C43.6512 16.6193 44.4877 17.0382 45.3496 17.3408C46.2114 17.6434 47.048 17.7831 47.8591 17.7831C48.5182 17.7831 49.1012 17.69 49.5829 17.527C50.0899 17.3408 50.4701 17.0848 50.7996 16.7822C51.1038 16.4796 51.3573 16.1072 51.5094 15.7115C51.6615 15.3158 51.7629 14.8968 51.7629 14.4546C51.7629 14.0356 51.7122 13.6632 51.5855 13.314C51.4587 12.9649 51.2559 12.639 50.9771 12.3132C50.6982 12.0106 50.2673 11.6847 49.735 11.3821C49.2026 11.0795 48.4929 10.7536 47.6563 10.4045C46.7438 10.0321 45.9833 9.65966 45.3749 9.31051C44.7412 8.93809 44.2342 8.5424 43.854 8.10015C43.4737 7.68118 43.1949 7.23893 43.0175 6.75012C42.84 6.26132 42.7386 5.74924 42.7386 5.19061C42.7386 4.49232 42.8907 3.84059 43.1949 3.21213C43.4991 2.58367 43.93 2.02504 44.4877 1.55951C45.0454 1.07071 45.7298 0.698289 46.5156 0.418973C47.3015 0.139658 48.1633 0 49.1012 0C49.9885 0 50.825 0.116381 51.6108 0.372421C52.3966 0.605183 53.1064 0.931051 53.6894 1.30347L52.6755 3.07247C52.1685 2.72333 51.5855 2.44401 50.9264 2.23452C50.2673 2.02504 49.6082 1.90866 48.9238 1.90866C48.2901 1.90866 47.707 2.00176 47.2001 2.16469C46.6931 2.32763 46.2875 2.56039 45.958 2.86298C45.6284 3.1423 45.4003 3.49144 45.2228 3.88714C45.0454 4.28284 44.9693 4.70181 44.9693 5.12078C44.9693 5.77252 45.2228 6.3777 45.7805 6.93633C46.3128 7.49496 47.2254 8.03032 48.5182 8.56567C49.5829 9.00792 50.4701 9.45017 51.2052 9.84587C51.915 10.2648 52.498 10.6838 52.929 11.1028C53.3599 11.545 53.6387 12.0106 53.8162 12.4994C54.019 13.0114 54.095 13.5934 54.095 14.2218Z" fill="rgb(52,48,55)" fill-rule="nonzero" />
	<path id="Vector" d="M65.3286 2.18632L65.3286 19.3642L63.0472 19.3642L63.0472 2.18632L56.1016 2.18632L56.1016 0.324219L72.2236 0.324219L72.2236 2.18632L65.3286 2.18632Z" fill="rgb(52,48,55)" fill-rule="nonzero" />
	<path id="Vector" d="M74.957 19.3642L74.957 0.324219L87.0992 0.324219L87.0992 2.18632L77.2131 2.18632L77.2131 8.7735L86.1106 8.7735L86.1106 10.6356L77.2131 10.6356L77.2131 17.5021L87.0992 17.5021L87.0992 19.3642L74.957 19.3642Z" fill="rgb(52,48,55)" fill-rule="nonzero" />
	<path id="Vector" d="M102.057 19.3709L96.5312 11.8527C96.303 11.8527 96.0749 11.8759 95.8467 11.8759C95.6186 11.8759 95.3905 11.8992 95.137 11.8992C94.8074 11.8992 94.4018 11.8992 93.9456 11.8759C93.5146 11.8759 93.109 11.8527 92.7795 11.8527L92.7795 19.3709L90.5234 19.3709L90.5234 0.493837C91.3093 0.400732 92.0697 0.330903 92.8556 0.261074C93.6414 0.214521 94.4525 0.167969 95.3144 0.167969C96.6579 0.167969 97.824 0.307626 98.8126 0.610218C99.8266 0.889534 100.638 1.28523 101.322 1.79731C101.981 2.30939 102.463 2.91457 102.818 3.61286C103.147 4.31115 103.299 5.07926 103.299 5.89393C103.299 7.22068 102.919 8.3845 102.133 9.31555C101.373 10.2699 100.232 10.9682 98.7619 11.3871L104.795 19.3476L102.057 19.3476L102.057 19.3709ZM100.866 6.03359C100.866 5.47496 100.739 4.96288 100.536 4.47408C100.308 3.98528 99.9786 3.56631 99.5477 3.21716C99.1168 2.86802 98.5591 2.5887 97.9254 2.37922C97.2663 2.16973 96.5058 2.05335 95.6693 2.05335C95.1623 2.05335 94.6807 2.07662 94.1484 2.0999C93.616 2.12318 93.1851 2.16973 92.8049 2.28611L92.8049 10.0138C93.1344 10.0604 93.5653 10.0837 94.0216 10.1069C94.4779 10.1302 94.9088 10.1302 95.3144 10.1302C97.2663 10.1302 98.6605 9.7578 99.5477 9.01296C100.435 8.29139 100.866 7.29051 100.866 6.03359Z" fill="rgb(52,48,55)" fill-rule="nonzero" />
	<path id="Vector" d="M107.203 17.5247C107.203 16.9428 107.406 16.4773 107.837 16.0583C108.268 15.6626 108.8 15.4531 109.383 15.4531C110.017 15.4531 110.524 15.6393 110.98 16.0583C111.411 16.454 111.614 16.9428 111.614 17.5247C111.614 18.0833 111.386 18.5721 110.98 18.9911C110.549 19.3868 110.017 19.573 109.383 19.573C108.8 19.573 108.268 19.3868 107.837 18.9911C107.406 18.5721 107.203 18.0833 107.203 17.5247Z" fill="rgb(52,48,55)" fill-rule="nonzero" />
	<path id="Vector" d="M127.025 19.3642L119.394 10.4494L119.394 19.3642L114.578 19.3642L114.578 0.324219L119.394 0.324219L119.394 8.61057L126.67 0.324219L132.373 0.324219L123.856 9.37869L132.829 19.3642L127.025 19.3642Z" fill="rgb(52,48,55)" fill-rule="nonzero" />
	<path id="Vector" d="M142.515 15.3374L152.452 15.3374L152.452 19.3642L134.859 19.3642L134.707 18.8987L144.974 4.37429L135.442 4.37429L135.442 0.324219L152.654 0.324219L152.806 0.81302L142.515 15.3374Z" fill="rgb(52,48,55)" fill-rule="nonzero" />
</svg>
