<svg viewBox="0 0 39.4453 39.6766" xmlns="http://www.w3.org/2000/svg" xmlns:xlink="http://www.w3.org/1999/xlink" width="39.445251" height="39.676598" fill="none" customFrame="#000000">
	<rect id="Frame 333" width="39.444309" height="39.676598" x="0.000000" y="0.000000" />
	<path id="Vector" d="M1.72638 21.0128L1.28649 20.0426C-1.1498 14.6894 -0.0162487 8.29787 4.11192 4.12766C6.7597 1.46383 10.2872 0 14.0432 0C17.7992 0 21.3267 1.46383 23.9745 4.12766L23.2893 4.81702C20.8192 2.34894 17.5369 0.987234 14.0347 0.987234C10.5326 0.987234 7.2588 2.34894 4.79713 4.82553C1.2019 8.45106 0.042967 13.8979 1.77714 18.6723C2.41159 17.5319 3.18985 16.4936 4.11192 15.566L6.52283 13.1404C6.74278 11.4723 7.50412 9.90638 8.67997 8.7234C11.6407 5.75319 16.4541 5.75319 19.4149 8.7234L27.815 17.166L27.1214 17.8553L18.7297 9.41277C16.1496 6.82553 11.9537 6.82553 9.37364 9.41277C8.31622 10.4766 7.63947 11.8979 7.47874 13.4128L7.46182 13.583L4.79713 16.2638C3.70587 17.3617 2.8261 18.6298 2.16627 20.0511L1.72638 21.0128ZM30.1075 20.1872L29.4139 19.4979L30.0652 18.834C31.4779 17.4128 32.1716 15.4468 31.9601 13.4213L32.9245 13.3191C33.1614 15.634 32.3746 17.8979 30.7504 19.5319L30.1075 20.1872Z" fill="rgb(52,48,55)" fill-rule="nonzero" />
	<path id="Vector" d="M25.3916 39.6761C21.6356 39.6761 18.1165 38.2123 15.4688 35.54L16.154 34.8506C18.6156 37.3272 21.8979 38.6974 25.3916 38.6974C28.8853 38.6974 32.1675 37.3272 34.6292 34.8506C38.2329 31.2336 39.3918 25.7868 37.6576 21.0123C37.0317 22.1442 36.2449 23.191 35.3229 24.1187L34.6377 23.4293C35.7374 22.3229 36.6256 21.0463 37.2685 19.6421L37.7084 18.6719L38.1483 19.6421C40.593 25.0038 39.4595 31.3953 35.3229 35.5485C32.6751 38.2038 29.1475 39.6761 25.3916 39.6761Z" fill="rgb(52,48,55)" fill-rule="nonzero" />
	<path id="Vector" d="M6.49686 26.3681C6.25154 24.0532 7.04672 21.7894 8.67091 20.1638L9.33074 19.5L10.016 20.1894L9.35612 20.8532C7.94341 22.2745 7.24974 24.2489 7.46122 26.266L6.49686 26.3681Z" fill="rgb(52,48,55)" fill-rule="nonzero" />
	<path id="Vector" d="M25.3945 33.1829C23.4488 33.1829 21.5116 32.4425 20.0312 30.9531L20.7165 30.2637C23.2966 32.851 27.4924 32.851 30.0725 30.2637C31.1468 29.1744 31.8067 27.7956 31.9674 26.2637L31.9843 26.0935L34.6321 23.4297L35.3173 24.119L32.9149 26.5361C32.7034 28.2212 31.9589 29.7446 30.7662 30.9531C29.2858 32.4425 27.3401 33.1829 25.3945 33.1829Z" fill="rgb(52,48,55)" fill-rule="nonzero" />
	<path id="Vector" d="M19.372 10.083L18.7121 9.41915C17.4686 8.16809 15.8106 7.47872 14.0426 7.47872C13.8057 7.47872 13.5688 7.48723 13.332 7.51277L13.2305 6.54255C13.5012 6.51702 13.7719 6.5 14.0426 6.5C16.0728 6.5 17.9762 7.29149 19.3973 8.72979L20.0572 9.39362L19.372 10.083Z" fill="rgb(52,48,55)" fill-rule="nonzero" />
	<path id="Vector" d="M14.0679 39.6685C10.405 39.6685 6.79286 38.2387 4.11125 35.5409C1.46347 32.8856 0 29.3366 0 25.5579C0 21.7792 1.45501 18.2302 4.11125 15.5664L4.79646 16.2558C2.33478 18.7324 0.972826 22.0345 0.972826 25.5579C0.972826 29.0728 2.33478 32.3664 4.79646 34.843C8.40014 38.4685 13.8141 39.626 18.5514 37.8813C17.4178 37.243 16.3858 36.46 15.4722 35.5324L13.0612 33.1153C11.3863 32.8941 9.87207 32.1536 8.67084 30.9451C7.24121 29.5068 6.45449 27.5919 6.45449 25.5494C6.45449 23.5068 7.24121 21.5919 8.67084 20.1536L9.35605 20.843C8.11252 22.0941 7.41886 23.7707 7.41886 25.5494C7.41886 27.3281 8.10406 29.0047 9.35605 30.2558C10.4388 31.3366 11.8093 32.0005 13.3319 32.1622L13.5011 32.1792L16.1574 34.843C17.2402 35.9409 18.5091 36.8345 19.9133 37.4898L20.8777 37.9324L19.9133 38.3749C18.0523 39.2515 16.0474 39.6685 14.0679 39.6685Z" fill="rgb(52,48,55)" fill-rule="nonzero" />
	<path id="Vector" d="M35.3255 24.1191L34.6403 23.4298C37.1104 20.9447 38.4724 17.6426 38.4724 14.1277C38.4724 10.6128 37.1104 7.31064 34.6403 4.82553C32.1871 2.34894 28.9049 0.987234 25.4027 0.987234C23.5247 0.987234 21.6298 1.40426 19.9295 2.18723L19.5234 1.29362C21.3507 0.451064 23.3809 0 25.4027 0L25.4111 0C29.1671 0 32.6947 1.46383 35.334 4.12766C37.9902 6.79149 39.4452 10.3404 39.4452 14.1191C39.4368 17.9064 37.9733 21.4553 35.3255 24.1191Z" fill="rgb(52,48,55)" fill-rule="nonzero" />
	<path id="Vector" d="M25.3857 33.1845C23.3808 33.1845 21.469 32.4016 20.0309 30.9548L19.3711 30.2909L20.0648 29.6016L20.7246 30.2654C22.1458 31.6867 24.1083 32.376 26.1047 32.1633L26.2063 33.142C25.9271 33.1675 25.6564 33.1845 25.3857 33.1845Z" fill="rgb(52,48,55)" fill-rule="nonzero" />
	<path id="Vector" d="M30.7659 19.526L30.0807 18.8366C32.6608 16.2409 32.6608 12.0196 30.0807 9.42383C29.0064 8.34298 27.636 7.67916 26.1048 7.52596L25.9356 7.50894L23.2879 4.8366C22.1966 3.73873 20.9277 2.85362 19.5234 2.1983L19.9295 1.30469C21.4353 2.00256 22.7972 2.95575 23.9731 4.13873L26.3755 6.56426C28.0589 6.77703 29.5732 7.52596 30.7659 8.72596C33.7182 11.7047 33.7182 16.5472 30.7659 19.526Z" fill="rgb(52,48,55)" fill-rule="nonzero" />
	<path id="Vector" d="M25.3964 33.1833C23.4507 33.1833 21.5135 32.4429 20.0331 30.9535L11.6161 22.4854L12.3013 21.7961L20.7183 30.2642C23.2984 32.8514 27.4943 32.8514 30.0744 30.2642C30.7596 29.5748 31.2756 28.7663 31.5971 27.8727L30.988 28.4854C29.6937 29.7876 28.3571 30.528 27.0121 30.6727C25.3625 30.8599 23.7383 30.162 22.1987 28.6046L13.8578 20.2131L14.543 19.5237L22.8839 27.9152C24.212 29.2514 25.5655 29.8557 26.9021 29.7025C28.0188 29.5748 29.1608 28.9365 30.3028 27.7961L33.0775 24.9961L32.9336 26.3748C32.7475 28.128 32.0031 29.711 30.7596 30.962C29.2877 32.4429 27.342 33.1833 25.3964 33.1833ZM10.0257 20.1876L9.33203 19.4982L11.5822 17.2344L12.2674 17.9237L10.0257 20.1876Z" fill="rgb(52,48,55)" fill-rule="nonzero" />
	<path id="Vector" d="M14.6037 33.2782L13.2333 33.1335C11.4907 32.9548 9.91723 32.1973 8.67371 30.9548C5.71293 27.976 5.71293 23.1335 8.67371 20.1548L17.1838 11.6016L17.869 12.2994L9.36737 20.8526C6.78727 23.4484 6.78727 27.6696 9.36737 30.2654C10.0526 30.9548 10.8647 31.4739 11.7445 31.7973L11.1438 31.193C8.22536 28.2484 8.18306 25.1931 11.0169 22.3335L19.4255 13.8739L20.1108 14.5633L11.7022 23.0228C9.24894 25.4909 9.29124 27.9335 11.829 30.4952L14.6037 33.2782Z" fill="rgb(52,48,55)" fill-rule="nonzero" />
	<path id="Vector" d="M3.19056 0L0 0L0 0.975844L3.19056 0.975844L3.19056 0Z" fill="rgb(52,48,55)" fill-rule="evenodd" transform="matrix(-0.705518,-0.708692,0.704415,-0.709788,21.625,12.3477)" />
	<path id="Vector" d="M24.8895 20.0191L16.6331 11.6957C14.1884 9.22758 11.7521 9.27014 9.2058 11.8148L7.41242 13.6276L6.71875 12.9382L8.52059 11.1255C11.4475 8.1978 14.4929 8.15524 17.3268 11.0063L25.5831 19.3297L24.8895 20.0191Z" fill="rgb(52,48,55)" fill-rule="nonzero" />
	<path id="Vector" d="M21.9666 28.3722L19.0312 25.4105L27.7359 16.6531C29.064 15.3169 29.6562 13.9552 29.5124 12.6105C29.3855 11.4871 28.7511 10.3297 27.609 9.19774L24.8344 6.40625L26.1963 6.55093C27.9474 6.73817 29.5209 7.4871 30.7559 8.73816C33.7167 11.7169 33.7167 16.5594 30.7559 19.5382L21.9666 28.3722ZM20.4017 25.4105L21.9666 26.985L30.0707 18.8318C32.6508 16.236 32.6508 12.0148 30.0707 9.41902C29.3855 8.72965 28.5734 8.21051 27.6852 7.87859L28.3027 8.49987C29.597 9.802 30.333 11.1467 30.4852 12.4999C30.6713 14.1594 29.9777 15.785 28.4296 17.3424L20.4017 25.4105Z" fill="rgb(52,48,55)" fill-rule="nonzero" />
</svg>
