<svg viewBox="0 0 12.1639 16.9895" xmlns="http://www.w3.org/2000/svg" xmlns:xlink="http://www.w3.org/1999/xlink" width="12.163940" height="16.989454" fill="none" customFrame="#000000">
	<path id="Vector" d="M12.0826 1.59584L9.85718 5.34917C9.76861 5.4931 9.64405 5.58444 9.48351 5.62319C9.32297 5.66194 9.17073 5.64257 9.0268 5.56507L7.81444 4.60182C7.52658 4.45789 7.23318 4.52709 6.93424 4.80942C6.6353 5.09175 6.25886 5.54292 5.80492 6.16294L3.89504 9.38482C3.70682 9.79447 3.57119 10.1875 3.48816 10.564C3.40512 10.9404 3.51307 11.2283 3.812 11.4276L5.19044 12.0919C5.34544 12.1804 5.43955 12.3078 5.47277 12.4738C5.50598 12.6399 5.48384 12.7949 5.40634 12.9389L3.16431 16.6922C3.0868 16.8472 2.96778 16.9413 2.80724 16.9745C2.6467 17.0077 2.49447 16.9856 2.35053 16.9081L1.10496 15.9947C0.927813 15.8397 0.711914 15.5407 0.457263 15.0978C0.202613 14.655 0.0531444 14.0405 0.0088574 13.2544C-0.0354296 12.4683 0.0863596 11.494 0.374225 10.3315C0.673163 9.17999 1.27104 7.81263 2.16785 6.22937C3.12002 4.60182 4.03898 3.34518 4.92472 2.45944C5.82153 1.58477 6.64084 0.959216 7.38264 0.582777C8.12445 0.206337 8.76661 0.0125815 9.30913 0.00150978C9.84057 -0.00956197 10.2225 0.0402609 10.4551 0.150978L11.8667 0.765461C12.0217 0.854035 12.1158 0.978592 12.149 1.13913C12.1823 1.29967 12.1601 1.45191 12.0826 1.59584Z" fill="rgb(52,48,55)" fill-rule="nonzero" transform="matrix(1,0,0,-1,0,16.9895)" />
</svg>
