<svg viewBox="0 0 24 24" xmlns="http://www.w3.org/2000/svg" xmlns:xlink="http://www.w3.org/1999/xlink" width="24.000000" height="24.000000" fill="none">
	<rect id="Icon" width="24.000000" height="24.000000" x="0.000000" y="0.000000" transform="matrix(1,0,0,-1,0,24)" />
	<path id="Vector" d="M15.9202 16.6017C16.5076 16.6017 17.082 16.5983 17.6434 16.5916C18.2047 16.5848 18.753 16.5882 19.2883 16.6017C20.189 16.6693 20.969 16.3618 21.6283 15.6794C22.2876 14.9969 22.6041 14.1962 22.578 13.2773C22.5519 12.7232 22.5487 12.159 22.5682 11.5847C22.5878 11.0104 22.6041 10.4394 22.6172 9.87183C22.6172 9.58804 22.5813 9.38533 22.5095 9.26371C22.4377 9.14209 22.2582 9.02722 21.971 8.91911C21.3183 8.66234 20.6655 8.42585 20.0128 8.20963C19.3601 7.99341 18.6975 7.8076 18.0252 7.65219C17.3529 7.49678 16.6773 7.37853 15.9985 7.29745C15.3066 7.20286 14.6147 7.1488 13.9228 7.13529C13.8836 7.13529 13.8445 7.13529 13.8053 7.13529C13.7661 7.13529 13.7074 7.12177 13.6291 7.09474C13.6291 6.82447 13.6258 6.54744 13.6193 6.26365C13.6127 5.97986 13.616 5.70282 13.6291 5.43255C13.6682 4.95956 13.5377 4.56091 13.2374 4.23658C12.9372 3.91224 12.5455 3.77035 12.0625 3.81089C11.7884 3.83792 11.5012 3.84468 11.2009 3.83116C10.9006 3.81765 10.6004 3.81089 10.3001 3.81089C9.90848 3.81089 9.58538 3.94265 9.33081 4.20617C9.07625 4.46969 8.94897 4.81091 8.94897 5.22984C8.94897 5.54066 8.94897 5.85148 8.94897 6.16229C8.94897 6.47311 8.94897 6.78393 8.94897 7.09474C8.6226 7.13529 8.30929 7.17583 8.00903 7.21637C7.70877 7.25691 7.40199 7.29745 7.08868 7.33799C6.54038 7.43259 5.99209 7.53394 5.44379 7.64205C4.90855 7.76368 4.37005 7.89544 3.82828 8.03733C3.28651 8.17923 2.748 8.33126 2.21276 8.49342C1.66447 8.65559 1.12923 8.82451 0.607041 9.00019C0.398167 9.06776 0.248038 9.16574 0.156656 9.29412C0.0652733 9.4225 0.0261093 9.60155 0.039164 9.83129C0.039164 10.4529 0.039164 11.0712 0.039164 11.6861C0.039164 12.3009 0.039164 12.9192 0.039164 13.5408C0.039164 14.3517 0.332894 15.0578 0.920353 15.6591C1.50781 16.2605 2.19318 16.5612 2.97646 16.5612C3.57698 16.5612 4.18728 16.5612 4.80738 16.5612C5.42747 16.5612 6.05736 16.5612 6.69704 16.5612C6.69704 16.7233 6.69704 16.8889 6.69704 17.0578C6.69704 17.2267 6.69704 17.3923 6.69704 17.5544C6.67093 18.0544 6.76557 18.4936 6.98098 18.872C7.19638 19.2504 7.4999 19.5747 7.89154 19.845C8.25707 20.0883 8.64544 20.2775 9.05667 20.4126C9.46789 20.5477 9.88237 20.6356 10.3001 20.6761C10.9659 20.7437 11.6186 20.7504 12.2583 20.6964C12.898 20.6423 13.5311 20.4802 14.1578 20.2099C14.7975 19.9261 15.2576 19.5612 15.5383 19.1153C15.819 18.6693 15.9593 18.095 15.9593 17.3923C15.9463 17.2706 15.9365 17.1456 15.9299 17.0173C15.9234 16.8889 15.9202 16.7504 15.9202 16.6017ZM13.6291 8.55424C13.6552 8.55424 13.6845 8.55424 13.7172 8.55424C13.7498 8.55424 13.7792 8.55424 13.8053 8.55424C14.4189 8.56775 15.0324 8.60829 15.646 8.67586C16.2596 8.75694 16.8666 8.86167 17.4671 8.99006C18.0676 9.11844 18.6616 9.27722 19.2491 9.46642C19.8496 9.65561 20.4371 9.86507 21.0115 10.0948C21.0767 10.1083 21.1322 10.1556 21.1779 10.2367C21.2236 10.3178 21.2464 10.3921 21.2464 10.4597C21.2464 10.9732 21.2464 11.4935 21.2464 12.0205C21.2464 12.5476 21.2334 13.0814 21.2073 13.6219C21.1942 14.1625 21.0474 14.5746 20.7667 14.8584C20.486 15.1422 20.0715 15.2841 19.5232 15.2841C18.1394 15.2841 16.7622 15.2841 15.3914 15.2841C14.0076 15.2841 12.6271 15.2841 11.2498 15.2841C9.87258 15.2841 8.49205 15.2841 7.10826 15.2841C5.73752 15.2841 4.36025 15.2841 2.97646 15.2841C2.45428 15.2841 2.04958 15.1355 1.76238 14.8382C1.47518 14.5408 1.33157 14.1354 1.33157 13.6219C1.33157 13.1219 1.33157 12.6219 1.33157 12.1219C1.33157 11.6219 1.33157 11.1219 1.33157 10.6218C1.33157 10.4867 1.35442 10.382 1.40011 10.3077C1.4458 10.2333 1.54045 10.1894 1.68405 10.1759C2.34984 9.9867 3.01236 9.79413 3.67162 9.59818C4.33088 9.40223 4.99341 9.23668 5.65919 9.10154C6.18138 8.96641 6.71662 8.86167 7.26491 8.78735C7.81321 8.71302 8.34845 8.63532 8.87064 8.55424C9.06646 9.1083 9.27207 9.46642 9.48747 9.62858C9.70287 9.79075 10.0847 9.87183 10.633 9.87183C10.8549 9.87183 11.0801 9.87183 11.3086 9.87183C11.5371 9.87183 11.7622 9.87183 11.9842 9.87183C12.4933 9.85832 12.8621 9.76034 13.0906 9.57791C13.319 9.39547 13.4985 9.05425 13.6291 8.55424ZM14.5494 16.6422C14.5494 16.7639 14.5494 16.8855 14.5494 17.0071C14.5494 17.1287 14.5494 17.2436 14.5494 17.3517C14.5494 17.9328 14.4515 18.3585 14.2557 18.6288C14.0599 18.899 13.6943 19.095 13.1591 19.2166C12.5586 19.3653 11.9581 19.4396 11.3575 19.4396C10.757 19.4396 10.15 19.3653 9.53642 19.2166C8.7662 19.0274 8.30276 18.7403 8.1461 18.3551C7.98945 17.97 7.96334 17.399 8.06778 16.6422L14.5494 16.6422ZM10.261 5.22984L12.2387 5.22984L12.2387 8.43261L10.261 8.43261L10.261 5.22984ZM11.2596 0C10.5808 0 9.90195 0 9.22311 0C8.54427 0 7.86869 0 7.19638 0C6.52406 0 5.84848 0 5.16964 0C4.4908 0 3.81196 0 3.13312 0C2.36289 0 1.69711 0.243248 1.13575 0.729745C0.574405 1.21624 0.221929 1.83112 0.0783279 2.57438C0.039164 2.68249 0.0163183 2.78046 0.00979099 2.8683C0.00326366 2.95614 0 3.05412 0 3.16223C0 3.87846 0 4.59469 0 5.31092C0 6.02715 0 6.75014 0 7.47989C0 7.72314 0.0620096 7.92247 0.186029 8.07787C0.310048 8.23328 0.476495 8.31099 0.685369 8.31099C0.881189 8.31099 1.03785 8.23328 1.15534 8.07787C1.27283 7.92247 1.34463 7.70962 1.37074 7.43935C1.37074 6.72312 1.37074 6.01364 1.37074 5.31092C1.37074 4.60821 1.37074 3.90549 1.37074 3.20277C1.37074 2.58114 1.51434 2.12167 1.80154 1.82436C2.08874 1.52706 2.5326 1.37841 3.13312 1.37841C4.08611 1.37841 5.03257 1.37841 5.9725 1.37841C6.92549 1.37841 7.87522 1.37841 8.82168 1.37841C9.76814 1.37841 10.7179 1.37841 11.6709 1.37841C12.6108 1.37841 13.5573 1.37841 14.5102 1.37841C15.2805 1.37841 16.0442 1.37841 16.8013 1.37841C17.5585 1.37841 18.3222 1.37841 19.0924 1.37841C19.1708 1.37841 19.2491 1.37841 19.3274 1.37841C19.4057 1.37841 19.471 1.37841 19.5232 1.37841C20.0846 1.39192 20.5056 1.54733 20.7863 1.84463C21.0669 2.14194 21.2073 2.58114 21.2073 3.16223C21.2073 3.83792 21.2073 4.52037 21.2073 5.20957C21.2073 5.89877 21.2073 6.58122 21.2073 7.25691C21.2073 7.32448 21.2073 7.38867 21.2073 7.44948C21.2073 7.51029 21.2073 7.56097 21.2073 7.60151C21.2334 7.80422 21.3019 7.97314 21.4129 8.10828C21.5239 8.24342 21.6707 8.31099 21.8535 8.31099C22.0363 8.31099 22.1962 8.25017 22.3333 8.12855C22.4703 8.00693 22.5389 7.84476 22.5389 7.64205C22.5389 6.83123 22.5487 6.02378 22.5682 5.21971C22.5878 4.41563 22.565 3.61494 22.4997 2.81763C22.4605 2.0068 22.1374 1.34124 21.5304 0.820963C20.9233 0.300682 20.2282 0.0270276 19.4449 0C18.7661 0 18.0872 0 17.4084 0C16.7295 0 16.0474 0 15.3621 0C14.6767 0 13.9946 0 13.3157 0C12.6369 0 11.9515 0 11.2596 0Z" fill="rgb(184,41,160)" fill-rule="nonzero" transform="matrix(1,0,0,-1,0.691406,22.3672)" />
</svg>
