<svg viewBox="0 0 30 30" xmlns="http://www.w3.org/2000/svg" xmlns:xlink="http://www.w3.org/1999/xlink" width="30.000000" height="30.000000" fill="none" customFrame="#000000">
	<defs>
		<clipPath id="clipPath_0">
			<rect width="30.000000" height="30.000000" x="0.000000" y="0.000000" fill="rgb(255,255,255)" />
		</clipPath>
	</defs>
	<rect id="vuesax/linear/designtools" width="30.000000" height="30.000000" x="0.000000" y="0.000000" fill="rgb(255,255,255)" fill-opacity="0" />
	<g id="vuesax/linear/designtools">
		<g id="designtools" clip-path="url(#clipPath_0)" customFrame="url(#clipPath_0)">
			<rect id="designtools" width="30.000000" height="30.000000" x="0.000000" y="0.000000" fill="rgb(255,255,255)" fill-opacity="0" />
			<path id="Vector" d="M16.4754 19.4873L14.0129 21.4623C13.7004 21.6873 13.3879 21.8873 13.0379 22.0248C13.0379 21.7998 13.0254 21.5498 12.9879 21.3123C12.8504 20.2623 12.3754 19.2873 11.5379 18.4498C10.6879 17.5998 9.65039 17.0998 8.58789 16.9623C8.33789 16.9498 8.08789 16.9248 7.83789 16.9498C7.97539 16.5623 8.18789 16.1998 8.45039 15.8998L10.4004 13.4373C13.6254 9.39985 20.1754 4.54985 24.9629 2.63735C25.7004 2.36235 26.4129 2.56235 26.8629 3.02485C27.3379 3.48735 27.5629 4.19985 27.2629 4.92485C25.3379 9.72485 20.5129 16.2498 16.4754 19.4873Z" fill-rule="nonzero" stroke="rgb(52,48,55)" stroke-linecap="round" stroke-linejoin="round" stroke-width="2.000000" />
			<path id="Vector" d="M11.5241 25.7125C10.7616 26.475 9.72412 27 8.48662 27.1625L5.41162 27.5C3.73662 27.6875 2.29912 26.2625 2.49912 24.5625L2.83662 21.4875C3.13662 18.75 5.42412 17 7.84912 16.95C8.09912 16.9375 8.36162 16.95 8.59912 16.9625C9.66162 17.1 10.6991 17.5875 11.5491 18.45C12.3866 19.2875 12.8616 20.2625 12.9991 21.3125C13.0116 21.55 13.0366 21.7875 13.0366 22.025C13.0366 23.4 12.5116 24.7125 11.5241 25.7125Z" fill-rule="nonzero" stroke="rgb(52,48,55)" stroke-linecap="round" stroke-linejoin="round" stroke-width="2.000000" />
			<path id="Vector" d="M17.7992 18.0873C17.7992 14.8248 15.1492 12.1748 11.8867 12.1748" fill-rule="nonzero" stroke="rgb(52,48,55)" stroke-linecap="round" stroke-linejoin="round" stroke-width="2.000000" />
			<path id="Vector" d="M25.1504 15.9126L26.0754 16.8251C27.9379 18.6876 27.9379 20.5251 26.0754 22.3876L22.3754 26.0876C20.5379 27.9251 18.6754 27.9251 16.8379 26.0876" fill-rule="nonzero" stroke="rgb(52,48,55)" stroke-linecap="round" stroke-width="2.000000" />
			<path id="Vector" d="M3.88789 13.1377C2.05039 11.2752 2.05039 9.4377 3.88789 7.5752L7.58789 3.8752C9.42539 2.0377 11.2879 2.0377 13.1254 3.8752L14.0504 4.8002" fill-rule="nonzero" stroke="rgb(52,48,55)" stroke-linecap="round" stroke-width="2.000000" />
			<path id="Vector" d="M14.0625 4.8125L9.4375 9.4375" stroke="rgb(52,48,55)" stroke-linecap="round" stroke-width="2.000000" />
			<path id="Vector" d="M25.1492 15.9126L21.4492 19.6001" stroke="rgb(52,48,55)" stroke-linecap="round" stroke-width="2.000000" />
			<path id="Vector" opacity="0" />
		</g>
	</g>
</svg>
