<svg viewBox="0 0 30 30" xmlns="http://www.w3.org/2000/svg" xmlns:xlink="http://www.w3.org/1999/xlink" width="30.000000" height="30.000000" fill="none" customFrame="#000000">
	<rect id="vuesax/linear/mobile" width="30.000000" height="30.000000" x="0.000000" y="0.000000" fill="rgb(255,255,255)" fill-opacity="0" />
	<g id="vuesax/linear/mobile">
		<g id="mobile">
			<path id="Vector" d="M25 21.25C25 26.25 23.75 27.5 18.75 27.5L11.25 27.5C6.25 27.5 5 26.25 5 21.25L5 8.75C5 3.75 6.25 2.5 11.25 2.5L18.75 2.5C23.75 2.5 25 3.75 25 8.75L25 21.25Z" fill-rule="nonzero" stroke="rgb(52,48,55)" stroke-linecap="round" stroke-linejoin="round" stroke-width="2.000000" />
			<path id="Vector" d="M17.5 6.875L12.5 6.875" stroke="rgb(52,48,55)" stroke-linecap="round" stroke-linejoin="round" stroke-width="2.000000" />
			<path id="Vector" d="M15 23.875C13.9299 23.875 13.0625 23.0076 13.0625 21.9375C13.0625 20.8674 13.9299 20 15 20C16.0701 20 16.9375 20.8674 16.9375 21.9375C16.9375 23.0076 16.0701 23.875 15 23.875Z" stroke="rgb(52,48,55)" stroke-linecap="round" stroke-linejoin="round" stroke-width="2.000000" />
		</g>
	</g>
</svg>
