<svg viewBox="0 0 30 30" xmlns="http://www.w3.org/2000/svg" xmlns:xlink="http://www.w3.org/1999/xlink" width="30.000000" height="30.000000" fill="none" customFrame="#000000">
	<rect id="vuesax/linear/share" width="30.000000" height="30.000000" x="0.000000" y="0.000000" fill="rgb(255,255,255)" fill-opacity="0" />
	<g id="vuesax/linear/share">
		<g id="share">
			<path id="Vector" d="M21.1992 7.7124C23.6992 9.4499 25.4242 12.2124 25.7742 15.3999" fill-rule="nonzero" stroke="rgb(52,48,55)" stroke-linecap="round" stroke-linejoin="round" stroke-width="2.000000" />
			<path id="Vector" d="M4.36328 15.4624C4.68828 12.2874 6.38828 9.5249 8.86328 7.7749" fill-rule="nonzero" stroke="rgb(52,48,55)" stroke-linecap="round" stroke-linejoin="round" stroke-width="2.000000" />
			<path id="Vector" d="M10.2383 26.1748C11.6883 26.9123 13.3383 27.3248 15.0758 27.3248C16.7508 27.3248 18.3258 26.9498 19.7383 26.2623" fill-rule="nonzero" stroke="rgb(52,48,55)" stroke-linecap="round" stroke-linejoin="round" stroke-width="2.000000" />
			<path id="Vector" d="M15.0746 9.6248C13.1554 9.6248 11.5996 8.06899 11.5996 6.1498C11.5996 4.23062 13.1554 2.6748 15.0746 2.6748C16.9938 2.6748 18.5496 4.23062 18.5496 6.1498C18.5496 8.06899 16.9938 9.6248 15.0746 9.6248Z" stroke="rgb(52,48,55)" stroke-linecap="round" stroke-linejoin="round" stroke-width="2.000000" />
			<path id="Vector" d="M6.0375 24.9C4.11831 24.9 2.5625 23.3441 2.5625 21.425C2.5625 19.5058 4.11831 17.95 6.0375 17.95C7.95669 17.95 9.5125 19.5058 9.5125 21.425C9.5125 23.3441 7.95669 24.9 6.0375 24.9Z" stroke="rgb(52,48,55)" stroke-linecap="round" stroke-linejoin="round" stroke-width="2.000000" />
			<path id="Vector" d="M23.9633 24.9002C22.0441 24.9002 20.4883 23.3444 20.4883 21.4252C20.4883 19.506 22.0441 17.9502 23.9633 17.9502C25.8825 17.9502 27.4383 19.506 27.4383 21.4252C27.4383 23.3444 25.8825 24.9002 23.9633 24.9002Z" stroke="rgb(52,48,55)" stroke-linecap="round" stroke-linejoin="round" stroke-width="2.000000" />
			<path id="Vector" opacity="0" />
		</g>
	</g>
</svg>
