<svg viewBox="0 0 30 30" xmlns="http://www.w3.org/2000/svg" xmlns:xlink="http://www.w3.org/1999/xlink" width="30.000000" height="30.000000" fill="none" customFrame="#000000">
	<rect id="vuesax/linear/task-square" width="30.000000" height="30.000000" x="0.000000" y="0.000000" fill="rgb(255,255,255)" fill-opacity="0" />
	<g id="vuesax/linear/task-square">
		<g id="task-square">
			<path id="Vector" d="M15.4629 11.1001L22.0254 11.1001" stroke="rgb(52,48,55)" stroke-linecap="round" stroke-linejoin="round" stroke-width="2.000000" />
			<path id="Vector" d="M7.97461 11.1001L8.91211 12.0376L11.7246 9.2251" fill-rule="nonzero" stroke="rgb(52,48,55)" stroke-linecap="round" stroke-linejoin="round" stroke-width="2.000000" />
			<path id="Vector" d="M15.4629 19.8501L22.0254 19.8501" stroke="rgb(52,48,55)" stroke-linecap="round" stroke-linejoin="round" stroke-width="2.000000" />
			<path id="Vector" d="M7.97461 19.8501L8.91211 20.7876L11.7246 17.9751" fill-rule="nonzero" stroke="rgb(52,48,55)" stroke-linecap="round" stroke-linejoin="round" stroke-width="2.000000" />
			<path id="Vector" d="M18.75 27.5C25 27.5 27.5 25 27.5 18.75L27.5 11.25C27.5 5 25 2.5 18.75 2.5L11.25 2.5C5 2.5 2.5 5 2.5 11.25L2.5 18.75C2.5 25 5 27.5 11.25 27.5L18.75 27.5Z" fill-rule="nonzero" stroke="rgb(52,48,55)" stroke-linecap="round" stroke-linejoin="round" stroke-width="2.000000" />
			<path id="Vector" opacity="0" />
		</g>
	</g>
</svg>
