<svg viewBox="0 0 80 80" xmlns="http://www.w3.org/2000/svg" xmlns:xlink="http://www.w3.org/1999/xlink" width="80.000000" height="80.000000" fill="none" customFrame="url(#clipPath_3)">
	<defs>
		<linearGradient id="paint_linear_0" x1="2.98023281e-07" x2="80" y1="40" y2="40" gradientUnits="userSpaceOnUse">
			<stop stop-color="rgb(184,41,160)" offset="0" stop-opacity="1" />
			<stop stop-color="rgb(99,102,241)" offset="1" stop-opacity="1" />
		</linearGradient>
		<clipPath id="clipPath_3">
			<rect width="80.000000" height="80.000000" x="0.000000" y="0.000000" rx="40.000000" fill="rgb(255,255,255)" />
		</clipPath>
		<clipPath id="clipPath_4">
			<rect width="50.000000" height="50.000000" x="15.000000" y="15.000000" fill="rgb(255,255,255)" />
		</clipPath>
	</defs>
	<rect id="Background" width="80.000000" height="80.000000" x="0.000000" y="0.000000" rx="40.000000" fill="url(#paint_linear_0)" />
	<g id="vuesax/bulk/people" customFrame="url(#clipPath_4)">
		<rect id="vuesax/bulk/people" width="50.000000" height="50.000000" x="15.000000" y="15.000000" fill="rgb(255,255,255)" fill-opacity="0" />
		<g id="vuesax/bulk/people">
			<g id="people">
				<path id="Vector" opacity="0" />
				<path id="Vector" d="M51.5182 31.1873C51.3724 31.1665 51.2266 31.1665 51.0807 31.1873C47.8516 31.0832 45.2891 28.4373 45.2891 25.1873C45.2891 21.8748 47.9766 19.1665 51.3099 19.1665C54.6224 19.1665 57.3307 21.854 57.3307 25.1873C57.3099 28.4373 54.7474 31.0832 51.5182 31.1873Z" opacity="0.400000006" fill="rgb(255,255,255)" fill-rule="nonzero" />
				<path id="Vector" d="M58.3151 45.6248C55.9818 47.1873 52.7109 47.7707 49.6901 47.3748C50.4818 45.6665 50.8984 43.7707 50.9193 41.7707C50.9193 39.6874 50.4609 37.7082 49.5859 35.979C52.6693 35.5624 55.9401 36.1457 58.2943 37.7082C61.5859 39.8748 61.5859 43.4373 58.3151 45.6248Z" opacity="0.400000006" fill="rgb(255,255,255)" fill-rule="nonzero" />
				<path id="Vector" d="M28.4141 31.1873C28.5599 31.1665 28.7057 31.1665 28.8516 31.1873C32.0807 31.0832 34.6432 28.4373 34.6432 25.1873C34.6432 21.8748 31.9557 19.1665 28.6224 19.1665C25.3099 19.1665 22.6016 21.854 22.6016 25.1873C22.6224 28.4373 25.1849 31.0832 28.4141 31.1873Z" opacity="0.400000006" fill="rgb(255,255,255)" fill-rule="nonzero" />
				<path id="Vector" d="M28.6458 41.7709C28.6458 43.7917 29.0833 45.7084 29.875 47.4375C26.9375 47.75 23.875 47.125 21.625 45.6459C18.3333 43.4584 18.3333 39.8958 21.625 37.7083C23.8542 36.2083 27 35.6042 29.9583 35.9375C29.1042 37.6875 28.6458 39.6667 28.6458 41.7709Z" opacity="0.400000006" fill="rgb(255,255,255)" fill-rule="nonzero" />
				<path id="Vector" d="M40.25 48.0625C40.0833 48.0417 39.8958 48.0417 39.7083 48.0625C35.875 47.9375 32.8125 44.7917 32.8125 40.9167C32.8125 36.9583 36 33.75 39.9792 33.75C43.9375 33.75 47.1458 36.9583 47.1458 40.9167C47.1458 44.7917 44.1042 47.9375 40.25 48.0625Z" fill="rgb(255,255,255)" fill-rule="nonzero" />
				<path id="Vector" d="M33.4766 52.375C30.3307 54.4792 30.3307 57.9375 33.4766 60.0208C37.0599 62.4167 42.9349 62.4167 46.5182 60.0208C49.6641 57.9167 49.6641 54.4583 46.5182 52.375C42.9557 49.9792 37.0807 49.9792 33.4766 52.375Z" fill="rgb(255,255,255)" fill-rule="nonzero" />
			</g>
		</g>
	</g>
</svg>
