<svg viewBox="0 0 80 80" xmlns="http://www.w3.org/2000/svg" xmlns:xlink="http://www.w3.org/1999/xlink" width="80.000000" height="80.000000" fill="none" customFrame="url(#clipPath_7)">
	<defs>
		<linearGradient id="paint_linear_2" x1="2.98023281e-07" x2="80" y1="40" y2="40" gradientUnits="userSpaceOnUse">
			<stop stop-color="rgb(184,41,160)" offset="0" stop-opacity="1" />
			<stop stop-color="rgb(99,102,241)" offset="1" stop-opacity="1" />
		</linearGradient>
		<clipPath id="clipPath_7">
			<rect width="80.000000" height="80.000000" x="0.000000" y="0.000000" rx="40.000000" fill="rgb(255,255,255)" />
		</clipPath>
		<clipPath id="clipPath_8">
			<rect width="50.000000" height="50.000000" x="15.000000" y="15.000000" fill="rgb(255,255,255)" />
		</clipPath>
	</defs>
	<rect id="Background" width="80.000000" height="80.000000" x="0.000000" y="0.000000" rx="40.000000" fill="url(#paint_linear_2)" />
	<g id="vuesax/bulk/cup" customFrame="url(#clipPath_8)">
		<rect id="vuesax/bulk/cup" width="50.000000" height="50.000000" x="15.000000" y="15.000000" fill="rgb(255,255,255)" fill-opacity="0" />
		<g id="vuesax/bulk/cup">
			<g id="cup">
				<path id="Vector" d="M52.5 57.7083L50.4167 57.7083L50.4167 57.1875C50.4167 54.8958 48.5417 53.0208 46.25 53.0208L41.5625 53.0208L41.5625 48.25C41.0417 48.3125 40.5208 48.3333 40 48.3333C39.4792 48.3333 38.9583 48.3125 38.4375 48.25L38.4375 53.0208L33.75 53.0208C31.4583 53.0208 29.5833 54.8958 29.5833 57.1875L29.5833 57.7083L27.5 57.7083C26.6458 57.7083 25.9375 58.4167 25.9375 59.2708C25.9375 60.125 26.6458 60.8333 27.5 60.8333L52.5 60.8333C53.3542 60.8333 54.0625 60.125 54.0625 59.2708C54.0625 58.4167 53.3542 57.7083 52.5 57.7083Z" opacity="0.400000006" fill="rgb(255,255,255)" fill-rule="nonzero" />
				<path id="Vector" d="M26.5 39.25C25.125 38.7291 23.9167 37.875 22.9583 36.9166C21.0208 34.7708 19.75 32.2083 19.75 29.2083C19.75 26.2083 22.1042 23.8541 25.1042 23.8541L26.2708 23.8541C25.7292 24.9583 25.4167 26.1875 25.4167 27.5L25.4167 33.75C25.4167 35.7083 25.7917 37.5625 26.5 39.25Z" opacity="0.400000006" fill="rgb(255,255,255)" fill-rule="nonzero" />
				<path id="Vector" d="M60.25 29.2083C60.25 32.2083 58.9792 34.7708 57.0417 36.9166C56.0833 37.875 54.875 38.7291 53.5 39.25C54.2083 37.5625 54.5833 35.7083 54.5833 33.75L54.5833 27.5C54.5833 26.1875 54.2708 24.9583 53.7292 23.8541L54.8958 23.8541C57.8958 23.8541 60.25 26.2083 60.25 29.2083Z" opacity="0.400000006" fill="rgb(255,255,255)" fill-rule="nonzero" />
				<path id="Vector" d="M46.2493 19.1665L33.7493 19.1665C29.1452 19.1665 25.416 22.8957 25.416 27.4998L25.416 33.7498C25.416 41.8123 31.9368 48.3332 39.9993 48.3332C48.0618 48.3332 54.5827 41.8123 54.5827 33.7498L54.5827 27.4998C54.5827 22.8957 50.8535 19.1665 46.2493 19.1665ZM45.916 32.604L44.6244 34.1873C44.416 34.4165 44.2702 34.8748 44.291 35.1873L44.416 37.229C44.4993 38.479 43.6035 39.1248 42.4368 38.6665L40.541 37.9165C40.2493 37.8123 39.7493 37.8123 39.4577 37.9165L37.5618 38.6665C36.3952 39.1248 35.4994 38.479 35.5827 37.229L35.7077 35.1873C35.7285 34.8748 35.5827 34.4165 35.3743 34.1873L34.0827 32.604C33.2702 31.6457 33.6244 30.5832 34.8327 30.2707L36.8118 29.7707C37.1243 29.6873 37.4993 29.3957 37.666 29.1248L38.7702 27.4165C39.4577 26.354 40.541 26.354 41.2285 27.4165L42.3327 29.1248C42.4993 29.3957 42.8743 29.6873 43.1868 29.7707L45.166 30.2707C46.3743 30.5832 46.7285 31.6457 45.916 32.604Z" fill="rgb(255,255,255)" fill-rule="nonzero" />
				<path id="Vector" d="M45.9167 32.6041L44.625 34.1875C44.4167 34.4166 44.2709 34.875 44.2917 35.1875L44.4167 37.2291C44.5 38.4791 43.6042 39.125 42.4375 38.6666L40.5417 37.9166C40.25 37.8125 39.75 37.8125 39.4584 37.9166L37.5625 38.6666C36.3959 39.125 35.5 38.4791 35.5834 37.2291L35.7084 35.1875C35.7292 34.875 35.5834 34.4166 35.375 34.1875L34.0834 32.6041C33.2709 31.6458 33.625 30.5833 34.8334 30.2708L36.8125 29.7708C37.125 29.6875 37.5 29.3958 37.6667 29.125L38.7709 27.4166C39.4584 26.3541 40.5417 26.3541 41.2292 27.4166L42.3334 29.125C42.5 29.3958 42.875 29.6875 43.1875 29.7708L45.1667 30.2708C46.375 30.5833 46.7292 31.6458 45.9167 32.6041Z" opacity="0.400000006" fill="rgb(255,255,255)" fill-rule="nonzero" />
				<path id="Vector" opacity="0" />
			</g>
		</g>
	</g>
</svg>
