<svg viewBox="0 0 80 80" xmlns="http://www.w3.org/2000/svg" xmlns:xlink="http://www.w3.org/1999/xlink" width="80.000000" height="80.000000" fill="none" customFrame="url(#clipPath_5)">
	<defs>
		<linearGradient id="paint_linear_1" x1="2.98023281e-07" x2="80" y1="40" y2="40" gradientUnits="userSpaceOnUse">
			<stop stop-color="rgb(184,41,160)" offset="0" stop-opacity="1" />
			<stop stop-color="rgb(99,102,241)" offset="1" stop-opacity="1" />
		</linearGradient>
		<clipPath id="clipPath_5">
			<rect width="80.000000" height="80.000000" x="0.000000" y="0.000000" rx="40.000000" fill="rgb(255,255,255)" />
		</clipPath>
		<clipPath id="clipPath_6">
			<rect width="50.000000" height="50.000000" x="15.000000" y="15.000000" fill="rgb(255,255,255)" />
		</clipPath>
	</defs>
	<rect id="Background" width="80.000000" height="80.000000" x="0.000000" y="0.000000" rx="40.000000" fill="url(#paint_linear_1)" />
	<g id="vuesax/bulk/award" customFrame="url(#clipPath_6)">
		<rect id="vuesax/bulk/award" width="50.000000" height="50.000000" x="15.000000" y="15.000000" fill="rgb(255,255,255)" fill-opacity="0" />
		<g id="vuesax/bulk/award">
			<g id="award">
				<path id="Vector" d="M52.3932 31.0627L52.1016 30.896L49.2057 29.2293L43.2266 25.771C41.3932 24.7085 38.6016 24.7085 36.7682 25.771L30.7891 29.2293L27.8932 30.9168L27.5182 31.1252C23.7891 33.6252 23.5391 34.0835 23.5391 38.1043L23.5391 47.7085C23.5391 51.7293 23.7891 52.1877 27.6016 54.7502L36.7682 60.0418C37.6849 60.5835 38.8307 60.8335 39.9974 60.8335C41.1432 60.8335 42.3099 60.5835 43.2266 60.0418L52.4766 54.6877C56.2057 52.1877 56.4557 51.7293 56.4557 47.7085L56.4557 38.1043C56.4557 34.0835 56.2057 33.6252 52.3932 31.0627Z" opacity="0.400000006" fill="rgb(255,255,255)" fill-rule="nonzero" />
				<path id="Vector" d="M27.8984 30.9165L30.7943 29.229L36.5026 25.9373L36.7734 25.7707C38.6068 24.7082 41.3984 24.7082 43.2318 25.7707L43.5026 25.9373L49.2109 29.229L52.1068 30.8957L52.1068 26.4373C52.1068 21.7498 49.5234 19.1665 44.8359 19.1665L35.1484 19.1665C30.4609 19.1665 27.8984 21.7498 27.8984 26.4373L27.8984 30.9165Z" fill="rgb(255,255,255)" fill-rule="nonzero" />
				<path id="Vector" d="M45.9167 42.7916L44.625 44.375C44.4167 44.6041 44.2709 45.0625 44.2917 45.375L44.4167 47.4166C44.5 48.6666 43.6042 49.3125 42.4375 48.8541L40.5417 48.1041C40.25 48 39.75 48 39.4584 48.1041L37.5625 48.8541C36.3959 49.3125 35.5 48.6666 35.5834 47.4166L35.7084 45.375C35.7292 45.0625 35.5834 44.6041 35.375 44.375L34.0834 42.7916C33.2709 41.8333 33.625 40.7708 34.8334 40.4583L36.8125 39.9583C37.125 39.875 37.5 39.5833 37.6667 39.3125L38.7709 37.6041C39.4584 36.5416 40.5417 36.5416 41.2292 37.6041L42.3334 39.3125C42.5 39.5833 42.875 39.875 43.1875 39.9583L45.1667 40.4583C46.375 40.7708 46.7292 41.8333 45.9167 42.7916Z" fill="rgb(255,255,255)" fill-rule="nonzero" />
				<path id="Vector" opacity="0" />
			</g>
		</g>
	</g>
</svg>
