<svg viewBox="0 0 80 80" xmlns="http://www.w3.org/2000/svg" xmlns:xlink="http://www.w3.org/1999/xlink" width="80.000000" height="80.000000" fill="none" customFrame="url(#clipPath_9)">
	<defs>
		<linearGradient id="paint_linear_3" x1="2.98023281e-07" x2="80" y1="40" y2="40" gradientUnits="userSpaceOnUse">
			<stop stop-color="rgb(184,41,160)" offset="0" stop-opacity="1" />
			<stop stop-color="rgb(99,102,241)" offset="1" stop-opacity="1" />
		</linearGradient>
		<clipPath id="clipPath_9">
			<rect width="80.000000" height="80.000000" x="0.000000" y="0.000000" rx="40.000000" fill="rgb(255,255,255)" />
		</clipPath>
		<clipPath id="clipPath_10">
			<rect width="50.000000" height="50.000000" x="15.000000" y="15.000000" fill="rgb(255,255,255)" />
		</clipPath>
	</defs>
	<rect id="Background" width="80.000000" height="80.000000" x="0.000000" y="0.000000" rx="40.000000" fill="url(#paint_linear_3)" />
	<g id="vuesax/bulk/timer-pause" customFrame="url(#clipPath_10)">
		<rect id="vuesax/bulk/timer-pause" width="50.000000" height="50.000000" x="15.000000" y="15.000000" fill="rgb(255,255,255)" fill-opacity="0" />
		<g id="vuesax/bulk/timer-pause">
			<g id="timer-pause">
				<path id="Vector" d="M40 43.6458C39.1458 43.6458 38.4375 42.9375 38.4375 42.0833L38.4375 31.6666C38.4375 30.8125 39.1458 30.1041 40 30.1041C40.8542 30.1041 41.5625 30.8125 41.5625 31.6666L41.5625 42.0833C41.5625 42.9375 40.8542 43.6458 40 43.6458Z" fill="rgb(255,255,255)" fill-rule="nonzero" />
				<path id="Vector" d="M46.0202 22.1873L33.9785 22.1873C33.1452 22.1873 32.4785 21.5207 32.4785 20.6873C32.4785 19.854 33.1452 19.1665 33.9785 19.1665L46.0202 19.1665C46.8535 19.1665 47.5202 19.8332 47.5202 20.6665C47.5202 21.4998 46.8535 22.1873 46.0202 22.1873Z" fill="rgb(255,255,255)" fill-rule="nonzero" />
				<path id="Vector" d="M46.25 56.6042L46.25 50.4792C46.25 47.8334 47.8333 46.25 50.4792 46.25L56.6042 46.25C57 46.25 57.3542 46.2917 57.7083 46.375C57.9375 45.2084 58.0625 44 58.0625 42.7709C58.0625 32.8125 49.9583 24.7084 40 24.7084C30.0417 24.7084 21.9375 32.8125 21.9375 42.7709C21.9375 52.7292 30.0417 60.8334 40 60.8334C42.5208 60.8334 44.9167 60.3125 47.1042 59.375C46.5625 58.6667 46.25 57.75 46.25 56.6042Z" opacity="0.400000006" fill="rgb(255,255,255)" fill-rule="nonzero" />
				<path id="Vector" d="M56.6042 46.25L50.5 46.25C47.8333 46.25 46.25 47.8333 46.25 50.4792L46.25 56.5833C46.25 59.2292 47.8333 60.8125 50.4792 60.8125L56.5833 60.8125C59.2292 60.8125 60.8125 59.2292 60.8125 56.5833L60.8125 50.4792C60.8333 47.8333 59.25 46.25 56.6042 46.25ZM52.3333 56.7917C52.3333 57.4583 51.7917 58 51.125 58C50.4583 58 49.9167 57.4583 49.9167 56.7917L49.9167 50.3125C49.9167 49.6458 50.4583 49.1042 51.125 49.1042C51.7917 49.1042 52.3333 49.6458 52.3333 50.3125L52.3333 56.7917ZM57.1875 56.7917C57.1875 57.4583 56.6458 58 55.9792 58C55.3125 58 54.7708 57.4583 54.7708 56.7917L54.7708 50.3125C54.7708 49.6458 55.3125 49.1042 55.9792 49.1042C56.6458 49.1042 57.1875 49.6458 57.1875 50.3125L57.1875 56.7917Z" fill="rgb(255,255,255)" fill-rule="nonzero" />
				<path id="Vector" opacity="0" />
			</g>
		</g>
	</g>
</svg>
